<?xml version="1.0" encoding="UTF-8"?>
<svg width="80px" height="80px" viewBox="0 0 80 80" version="1.1" xmlns="http://www.w3.org/2000/svg" xmlns:xlink="http://www.w3.org/1999/xlink">
    <!-- Generator: Sketch 47 (45396) - http://www.bohemiancoding.com/sketch -->
    <title>noun_1122817_cc</title>
    <desc>Created with Sketch.</desc>
    <defs></defs>
    <g id="RegisTRATION" stroke="none" stroke-width="1" fill="none" fill-rule="evenodd">
        <g id="noun_1122817_cc" fill-rule="nonzero" fill="#9B9B9B">
            <g id="Group">
                <path d="M40,48.7 C49.8,48.7 57.8,40.7 57.8,30.9 C57.8,21.1 49.8,13.1 40,13.1 C30.2,13.1 22.2,21.1 22.2,30.9 C22.2,40.7 30.2,48.7 40,48.7 Z" id="Shape"></path>
                <path d="M40,0.3 C18.1,0.3 0.3,18.1 0.3,40 C0.3,61.9 18.1,79.7 40,79.7 C61.9,79.7 79.7,61.9 79.7,40 C79.7,18.1 61.9,0.3 40,0.3 Z M40,6.3 C58.6,6.3 73.7,21.4 73.7,40 C73.7,47.2 71.4,53.9 67.5,59.4 C64,54.3 58.6,50.8 52.5,50 C51.4,49.8 50.2,50.1 49.3,50.8 C46.6,52.8 43.4,53.8 40,53.8 C36.6,53.8 33.4,52.8 30.7,50.8 C29.8,50.1 28.7,49.8 27.5,50 C21.4,50.8 15.9,54.3 12.5,59.4 C8.6,53.9 6.3,47.2 6.3,40 C6.3,21.4 21.4,6.3 40,6.3 Z" id="Shape"></path>
            </g>
        </g>
    </g>
</svg>