<?xml version="1.0" encoding="UTF-8"?>
<svg width="36px" height="44px" viewBox="0 0 36 44" version="1.1" xmlns="http://www.w3.org/2000/svg" xmlns:xlink="http://www.w3.org/1999/xlink">
    <!-- Generator: Sketch 47 (45396) - http://www.bohemiancoding.com/sketch -->
    <title>Combined Shape</title>
    <desc>Created with Sketch.</desc>
    <defs>
        <filter x="-1.9%" y="-1.4%" width="103.8%" height="103.1%" filterUnits="objectBoundingBox" id="filter-1">
            <feOffset dx="0" dy="2" in="SourceAlpha" result="shadowOffsetOuter1"></feOffset>
            <feGaussianBlur stdDeviation="5" in="shadowOffsetOuter1" result="shadowBlurOuter1"></feGaussianBlur>
            <feColorMatrix values="0 0 0 0 0   0 0 0 0 0   0 0 0 0 0  0 0 0 0.1 0" type="matrix" in="shadowBlurOuter1" result="shadowMatrixOuter1"></feColorMatrix>
            <feMerge>
                <feMergeNode in="shadowMatrixOuter1"></feMergeNode>
                <feMergeNode in="SourceGraphic"></feMergeNode>
            </feMerge>
        </filter>
        <filter x="-1.3%" y="-0.9%" width="102.6%" height="102.6%" filterUnits="objectBoundingBox" id="filter-2">
            <feOffset dx="0" dy="2" in="SourceAlpha" result="shadowOffsetOuter1"></feOffset>
            <feGaussianBlur stdDeviation="2" in="shadowOffsetOuter1" result="shadowBlurOuter1"></feGaussianBlur>
            <feColorMatrix values="0 0 0 0 0   0 0 0 0 0   0 0 0 0 0  0 0 0 0.0897022192 0" type="matrix" in="shadowBlurOuter1" result="shadowMatrixOuter1"></feColorMatrix>
            <feMerge>
                <feMergeNode in="shadowMatrixOuter1"></feMergeNode>
                <feMergeNode in="SourceGraphic"></feMergeNode>
            </feMerge>
        </filter>
    </defs>
    <g id="Flights" stroke="none" stroke-width="1" fill="none" fill-rule="evenodd">
        <g id="Desktop-HD-Copy-8" transform="translate(-806.000000, -412.000000)" fill-rule="nonzero" fill="#4267B2">
            <g id="Group" filter="url(#filter-1)" transform="translate(295.000000, 167.000000)">
                <g id="Flight-Card" filter="url(#filter-2)" transform="translate(151.000000, 252.000000)">
                    <path d="M384.902711,1 C385.515152,1 386,1.50574713 386,2.11264368 L386,21.8873563 C386,22.4942529 385.489633,23 384.877193,23 L371.122807,23 C370.510367,23 370,22.4942529 370,21.8873563 L370,2.11264368 C370,1.50574713 370.510367,1 371.122807,1 L384.902711,1 Z M376.563885,16 C375.672366,16 375.34908,16.0928256 375.023154,16.2671327 C374.697228,16.4414398 374.44144,16.6972284 374.267133,17.0231543 C374.092826,17.3490802 374,17.6723665 374,18.5638852 L374,20 L382,20 L382,18.5638852 C382,17.6723665 381.907174,17.3490802 381.732867,17.0231543 C381.55856,16.6972284 381.302772,16.4414398 380.976846,16.2671327 C380.65092,16.0928256 380.327634,16 379.436115,16 L376.563885,16 Z M378,15 C379.652778,15 381,13.6527778 381,12 C381,10.3472222 379.652778,9 378,9 C376.347222,9 375,10.3472222 375,12 C375,13.6527778 376.347222,15 378,15 Z M374,4 L374,5 L382,5 L382,4 L374,4 Z" id="Combined-Shape"></path>
                </g>
            </g>
        </g>
    </g>
</svg>