<?xml version="1.0" encoding="UTF-8"?>
<svg width="21px" height="22px" viewBox="0 0 21 22" version="1.1" xmlns="http://www.w3.org/2000/svg" xmlns:xlink="http://www.w3.org/1999/xlink">
    <!-- Generator: Sketch 47 (45396) - http://www.bohemiancoding.com/sketch -->
    <title>Shape</title>
    <desc>Created with Sketch.</desc>
    <defs></defs>
    <g id="Flights" stroke="none" stroke-width="1" fill="none" fill-rule="evenodd">
        <g id="Desktop-HD-Copy-7" transform="translate(-1169.000000, -436.000000)" fill-rule="nonzero" fill="#3C7AC9">
            <g id="Group-14" transform="translate(1092.000000, 410.000000)">
                <g id="Group-13" transform="translate(77.000000, 22.000000)">
                    <path d="M19.25,13.933713 L19.25,5.69767442 C19.25,5.31235949 18.9376405,5 18.5523256,5 C18.1670107,5 17.8546512,5.31235949 17.8546512,5.69767442 L17.8546512,13.9337908 C16.7824057,14.2378136 15.994186,15.2247624 15.994186,16.3953488 C15.994186,17.5639216 16.780928,18.5526906 17.8546512,18.8569847 L17.8546512,24.3023256 C17.8546512,24.6876405 18.1670107,25 18.5523256,25 C18.9376405,25 19.25,24.6876405 19.25,24.3023256 L19.25,18.8569068 C20.3222455,18.552884 21.1104651,17.5659353 21.1104651,16.3953488 C21.1104651,15.226776 20.3237232,14.2380071 19.25,13.933713 L19.25,13.933713 Z M10.877907,6.95696879 L10.877907,5.69767442 C10.877907,5.31235949 10.5655475,5 10.1802326,5 C9.79491763,5 9.48255814,5.31235949 9.48255814,5.69767442 L9.48255814,6.95704665 C8.41031265,7.26106944 7.62209302,8.24801823 7.62209302,9.41860465 C7.62209302,10.5871774 8.40883498,11.5759464 9.48255814,11.8802405 L9.48255814,24.3023256 C9.48255814,24.6876405 9.79491763,25 10.1802326,25 C10.5655475,25 10.877907,24.6876405 10.877907,24.3023256 L10.877907,11.8801627 C11.9501525,11.5761399 12.7383721,10.5891911 12.7383721,9.41860465 C12.7383721,8.25003186 11.9516301,7.26126293 10.877907,6.95696879 L10.877907,6.95696879 Z M2.50581395,18.1197595 L2.50581395,5.69767442 C2.50581395,5.31235949 2.19345447,5 1.80813953,5 C1.4228246,5 1.11046512,5.31235949 1.11046512,5.69767442 L1.11046512,18.1198373 C0.0382196279,18.4238601 -0.75,19.4108089 -0.75,20.5813953 C-0.75,21.7499681 0.0367419535,22.7387371 1.11046512,23.0430312 L1.11046512,24.3023256 C1.11046512,24.6876405 1.4228246,25 1.80813953,25 C2.19345447,25 2.50581395,24.6876405 2.50581395,24.3023256 L2.50581395,23.0429533 C3.57805944,22.7389306 4.36627907,21.7519818 4.36627907,20.5813953 C4.36627907,19.4128226 3.57953712,18.4240536 2.50581395,18.1197595 L2.50581395,18.1197595 Z" id="Shape" transform="translate(10.180233, 15.000000) rotate(90.000000) translate(-10.180233, -15.000000) "></path>
                </g>
            </g>
        </g>
    </g>
</svg>