<?xml version="1.0" encoding="UTF-8"?>
<svg width="17px" height="18px" viewBox="0 0 17 18" version="1.1" xmlns="http://www.w3.org/2000/svg" xmlns:xlink="http://www.w3.org/1999/xlink">
    <!-- Generator: Sketch 47 (45396) - http://www.bohemiancoding.com/sketch -->
    <title>Shape</title>
    <desc>Created with Sketch.</desc>
    <defs></defs>
    <g id="Symbols" stroke="none" stroke-width="1" fill="none" fill-rule="evenodd">
        <g id="Flights-Header" transform="translate(-223.000000, -131.000000)" fill-rule="nonzero" fill="#FFFFFF">
            <path d="M239,139.14697 L239,132.55814 C239,132.249888 238.750112,132 238.44186,132 C238.133609,132 237.883721,132.249888 237.883721,132.55814 L237.883721,139.147033 C237.025925,139.390251 236.395349,140.17981 236.395349,141.116279 C236.395349,142.051137 237.024742,142.842152 237.883721,143.085588 L237.883721,147.44186 C237.883721,147.750112 238.133609,148 238.44186,148 C238.750112,148 239,147.750112 239,147.44186 L239,143.085525 C239.857796,142.842307 240.488372,142.052748 240.488372,141.116279 C240.488372,140.181421 239.858979,139.390406 239,139.14697 L239,139.14697 Z M232.302326,133.565575 L232.302326,132.55814 C232.302326,132.249888 232.052438,132 231.744186,132 C231.435934,132 231.186047,132.249888 231.186047,132.55814 L231.186047,133.565637 C230.32825,133.808856 229.697674,134.598415 229.697674,135.534884 C229.697674,136.469742 230.327068,137.260757 231.186047,137.504192 L231.186047,147.44186 C231.186047,147.750112 231.435934,148 231.744186,148 C232.052438,148 232.302326,147.750112 232.302326,147.44186 L232.302326,137.50413 C233.160122,137.260912 233.790698,136.471353 233.790698,135.534884 C233.790698,134.600025 233.161304,133.80901 232.302326,133.565575 L232.302326,133.565575 Z M225.604651,142.495808 L225.604651,132.55814 C225.604651,132.249888 225.354764,132 225.046512,132 C224.73826,132 224.488372,132.249888 224.488372,132.55814 L224.488372,142.49587 C223.630576,142.739088 223,143.528647 223,144.465116 C223,145.399975 223.629394,146.19099 224.488372,146.434425 L224.488372,147.44186 C224.488372,147.750112 224.73826,148 225.046512,148 C225.354764,148 225.604651,147.750112 225.604651,147.44186 L225.604651,146.434363 C226.462448,146.191144 227.093023,145.401585 227.093023,144.465116 C227.093023,143.530258 226.46363,142.739243 225.604651,142.495808 L225.604651,142.495808 Z" id="Shape" transform="translate(231.744186, 140.000000) rotate(90.000000) translate(-231.744186, -140.000000) "></path>
        </g>
    </g>
</svg>