<?xml version="1.0" encoding="UTF-8"?>
<svg width="66px" height="66px" viewBox="0 0 66 66" version="1.1" xmlns="http://www.w3.org/2000/svg" xmlns:xlink="http://www.w3.org/1999/xlink">
    <!-- Generator: Sketch 47 (45396) - http://www.bohemiancoding.com/sketch -->
    <title>history</title>
    <desc>Created with Sketch.</desc>
    <defs></defs>
    <g id="RegisTRATION" stroke="none" stroke-width="1" fill="none" fill-rule="evenodd">
        <g id="history" fill-rule="nonzero" fill="#000000">
            <path d="M37.2,34.6 C37.2,34.6 37.1,34.7 37.1,34.7 C37.2,35 37.2,35.3 37.2,35.7 C37.2,37.7 35.6,39.3 33.6,39.3 C31.6,39.3 30,37.7 30,35.7 C30,35.4 30,35.2 30.1,34.9 L16.3,20.9 C15.7,20.3 15.7,19.2 16.3,18.6 L16.3,18.6 C16.9,18 18,18 18.6,18.6 L32.3,32.3 C32.7,32.1 33.2,32 33.6,32 C34,32 34.4,32.1 34.8,32.2 C34.8,32.2 34.8,32.2 34.8,32.2 L44.8,22.2 C45.4,21.6 46.5,21.6 47.1,22.2 L47.1,22.2 C47.7,22.8 47.7,23.9 47.1,24.5 L37.2,34.6 Z M5.3,39 L1.8,39.8 C2,40.8 2.3,41.7 2.6,42.7 C6.9,56.4 19.7,65.3 33.4,65.3 C36.6,65.3 39.8,64.8 43,63.8 C59.9,58.4 69.4,40.3 64,23.3 C58.7,6.4 40.5,-3.1 23.6,2.2 C15.2,4.9 8.2,10.8 4.4,18.7 L0.5,17 L3.1,25.9 L11.5,22 L7.7,20.3 C11.2,13.3 17.3,8.1 24.8,5.7 C39.9,1 56,9.4 60.7,24.4 C65.4,39.5 57,55.6 42,60.3 C26.8,65.1 10.7,56.7 6,41.6 C5.7,40.7 5.5,39.9 5.3,39 Z" id="Shape"></path>
        </g>
    </g>
</svg>