<?xml version="1.0" encoding="UTF-8"?>
<svg width="28px" height="28px" viewBox="0 0 28 28" version="1.1" xmlns="http://www.w3.org/2000/svg" xmlns:xlink="http://www.w3.org/1999/xlink">
    <!-- Generator: Sketch 47 (45396) - http://www.bohemiancoding.com/sketch -->
    <title>Combined Shape</title>
    <desc>Created with Sketch.</desc>
    <defs></defs>
    <g id="Flights" stroke="none" stroke-width="1" fill="none" fill-rule="evenodd">
        <g id="Searching" transform="translate(-193.000000, -51.000000)" fill-rule="nonzero" fill="#4A4A4A">
            <path d="M210.81843,63.5338197 C211.585979,64.538664 212.191854,65.3366045 212.487629,65.7359584 C215.111436,69.2562463 217.091564,70.8205077 221,71.0863482 L221,74.1728963 C221,76.7977214 218.848042,78.930042 216.191506,78.930042 L215.662381,78.930042 C213.302456,78.930042 211.785365,77.5366882 210.81843,76.3710646 L210.81843,76.3751749 C210.81843,76.3751749 210.801353,76.3530505 210.768645,76.3106682 C210.527351,76.0161003 210.321373,75.7381081 210.145886,75.5034271 C208.197203,72.9768312 202.614662,65.7333555 201.493279,64.2192684 C198.877654,60.6989806 196.894798,59.1347192 193,58.8688787 L193,55.776734 C193,53.1463122 195.154685,51.0139916 197.808494,51.0251849 L198.323982,51.0251849 C200.683907,51.0251849 202.200998,52.4185387 203.167933,53.5841623 L203.167933,53.580052 C203.167933,53.580052 203.184808,53.6019298 203.217137,53.6438501 C203.465594,53.9471181 203.67662,54.2328427 203.85548,54.4718567 C205.214658,56.2353258 208.298559,60.2390914 210.436159,63.0337238 L210.81843,63.5308815 L210.81843,63.5338197 Z M201.493279,67.3701779 L201.496006,77.413352 C201.518925,78.2655105 200.864646,78.9756147 200.034093,79 L197.808494,79 C195.151958,79 193,76.8704777 193,74.2428543 L193,60.8836698 C196.559322,60.8836698 199.172219,63.8974615 201.493279,67.3701779 Z M212.503994,62.6130322 L212.503994,52.586648 C212.481075,51.7344895 213.135354,51.0243853 213.965907,51 L216.188778,51 C218.845315,51 220.997273,53.1295223 220.997273,55.7571457 L220.997273,69.1051369 C217.440678,69.1051369 214.827781,66.0885469 212.503994,62.6130322 Z" id="Combined-Shape"></path>
        </g>
    </g>
</svg>