<?xml version="1.0" encoding="UTF-8"?>
<svg width="24px" height="24px" viewBox="0 0 24 24" version="1.1" xmlns="http://www.w3.org/2000/svg" xmlns:xlink="http://www.w3.org/1999/xlink">
    <!-- Generator: Sketch 47 (45396) - http://www.bohemiancoding.com/sketch -->
    <title>Shape</title>
    <desc>Created with Sketch.</desc>
    <defs></defs>
    <g id="Symbols" stroke="none" stroke-width="1" fill="none" fill-rule="evenodd">
        <g id="button_refresh" transform="translate(-20.000000, -20.000000)" fill-rule="nonzero" fill="#FFFFFF">
            <path d="M40.4918651,40.4911635 C36.4981155,44.4849131 30.3697061,45.0692905 25.7482694,42.2491304 C25.6294198,42.7221116 25.2305686,43.0935669 24.7177023,43.1483586 C24.3434268,43.187438 23.9921154,43.0508617 23.7449485,42.8036948 C23.5580122,42.6167584 23.4315079,42.3669728 23.4018962,42.0835467 L23.1581538,39.779073 C23.1365997,39.5750143 23.172456,39.381229 23.2449744,39.2039618 C23.2477946,39.1979186 23.2504133,39.1912711 23.253032,39.1850264 C23.2784135,39.1254002 23.3080251,39.0696013 23.3422699,39.0156154 C23.353752,38.9964786 23.3658384,38.9787519 23.3785291,38.9608237 C23.4073351,38.9199314 23.4391626,38.8812549 23.4740117,38.8439885 C23.4875082,38.8292834 23.4969759,38.8125639 23.5106738,38.798866 C23.5225588,38.786981 23.5364581,38.7791248 23.5481416,38.7682471 C23.5731202,38.7456858 23.5995088,38.7241317 23.6269047,38.7039877 C23.6688042,38.6717573 23.7107037,38.6419442 23.7554234,38.615757 C23.7675098,38.608908 23.7799991,38.6024619 23.7924884,38.5960159 C23.9697556,38.5009362 24.1645481,38.4483603 24.3611535,38.4491661 L26.526835,38.2201288 C27.1843352,38.1504306 27.7725401,38.6266347 27.8424397,39.2839335 C27.8905839,39.7385836 27.6734316,40.1563702 27.3199044,40.3966881 C30.9782563,42.4342538 35.6949741,41.9038622 38.799769,38.7990674 C41.6088499,35.9899865 42.4005091,31.6699041 40.7694494,28.0482141 C40.4981097,27.44611 40.7664278,26.737444 41.368532,26.4657014 C41.9712405,26.1949661 42.679705,26.4630827 42.9512461,27.0657912 C44.9882075,31.5881194 43.9997414,36.9832872 40.4918651,40.4911635 Z M39.7739329,25.5443148 L37.4690563,25.7868486 C37.0945793,25.8265323 36.7432679,25.6895531 36.4963025,25.4425876 C36.3093662,25.2556513 36.1828618,25.0058657 36.1526458,24.7230439 C36.1040988,24.2647679 36.324877,23.8437583 36.6832388,23.6050519 C33.024484,21.5662776 28.3069604,22.0966691 25.2021655,25.2014639 C22.3735449,28.0300845 21.5923606,32.373534 23.2584709,36.0089218 C23.5338394,36.6094145 23.2703559,37.3200949 22.6694603,37.5954633 C22.2019181,37.8095941 21.6683035,37.6969891 21.3248483,37.3535339 C21.226747,37.2554326 21.1441566,37.1390003 21.0833217,37.005647 C19.0020435,32.465995 19.9778189,27.0420213 23.5104724,23.5093679 C27.5028119,19.5170283 33.6286025,18.9320466 38.2502406,21.7491851 C38.3721119,21.2808371 38.769553,20.913209 39.2785919,20.8594246 C39.9366964,20.7903306 40.5253041,21.2665348 40.5945995,21.9236321 L40.8381404,24.2283073 C40.841162,24.2583218 40.837939,24.2861205 40.8385433,24.3153293 C40.839752,24.3415165 40.8399534,24.3670994 40.8391476,24.3932866 C40.8373347,24.4454596 40.8327016,24.4964239 40.8242411,24.5467839 C40.8206152,24.5729711 40.8149748,24.5983526 40.8093345,24.6245398 C40.7978524,24.672281 40.7839531,24.7192166 40.7672336,24.7657492 C40.7575644,24.7943537 40.7456795,24.8211452 40.7329888,24.8487425 C40.7140534,24.890642 40.6933051,24.9311315 40.6693337,24.9700094 C40.6520099,24.9990167 40.6332759,25.0262111 40.6137363,25.0538084 C40.5877505,25.0894633 40.5599518,25.124111 40.5299372,25.1565428 C40.5158364,25.1710465 40.5067716,25.1881689 40.4922679,25.2026726 C40.480383,25.2145575 40.4664836,25.2220108 40.4537929,25.23309 C40.4241812,25.2610902 40.3931595,25.2856659 40.3605262,25.3098387 C40.3272886,25.3354215 40.2942524,25.3587886 40.2592019,25.3797384 C40.2314031,25.3962564 40.2019929,25.4107601 40.1727841,25.4250624 C40.1294745,25.4462136 40.0861649,25.466559 40.0416466,25.4820699 C40.0160638,25.4903289 39.9904809,25.4969764 39.964898,25.5044297 C39.9125236,25.5193363 39.859142,25.5308184 39.8043503,25.5376673 C39.7940769,25.5390774 39.7844078,25.5431062 39.7739329,25.5443148 Z" id="Shape"></path>
        </g>
    </g>
</svg>