<?xml version="1.0" encoding="UTF-8"?>
<svg width="40px" height="40px" viewBox="0 0 40 40" version="1.1" xmlns="http://www.w3.org/2000/svg" xmlns:xlink="http://www.w3.org/1999/xlink">
    <!-- Generator: Sketch 48.1 (47250) - http://www.bohemiancoding.com/sketch -->
    <title>noun_1343802_cc</title>
    <desc>Created with Sketch.</desc>
    <defs></defs>
    <g id="Desktop-HD-Copy-3" stroke="none" stroke-width="1" fill="none" fill-rule="evenodd" transform="translate(-1251.000000, -469.000000)">
        <g id="noun_1343802_cc" transform="translate(1251.000000, 469.000000)" fill="#3C79C9" fill-rule="nonzero">
            <g id="Group">
                <g id="Shape">
                    <path d="M12,0 L12,12 L28,12 L28,0 L32,0 L40,8 L40,40 L0,40 L0,0 L12,0 Z M20,0 L24,0 L24,8 L20,8 L20,0 Z M4,16 L4,36 L36,36 L36,16 L4,16 Z M8,20 L32,20 L32,24 L8,24 L8,20 Z M8,28 L32,28 L32,32 L8,32 L8,28 Z"></path>
                </g>
            </g>
        </g>
    </g>
</svg>