<?xml version="1.0" encoding="UTF-8"?>
<svg width="16px" height="16px" viewBox="0 0 16 16" version="1.1" xmlns="http://www.w3.org/2000/svg" xmlns:xlink="http://www.w3.org/1999/xlink">
    <!-- Generator: Sketch 47 (45396) - http://www.bohemiancoding.com/sketch -->
    <title>Shape</title>
    <desc>Created with Sketch.</desc>
    <defs></defs>
    <g id="Symbols" stroke="none" stroke-width="1" fill="none" fill-rule="evenodd">
        <g id="Flights-Header" transform="translate(-20.000000, -132.000000)" fill-rule="nonzero" fill="#FFFFFF">
            <path d="M28.6898497,132.000048 C28.5327685,131.998022 28.3817463,132.060585 28.2721159,132.173101 L20.1684686,140.270792 C20.060619,140.37829 20,140.524299 20,140.676572 C20,140.828846 20.060619,140.974855 20.1684686,141.082353 L26.9175361,147.831439 C27.0250334,147.939289 27.1710427,147.999908 27.3233162,147.999908 C27.4755896,147.999908 27.6215989,147.939289 27.7290962,147.831439 L35.8327627,139.733731 C35.9430831,139.6231 36.0034379,139.472214 35.9998486,139.31602 L35.8625899,132.698228 C35.8562264,132.391116 35.6087895,132.143671 35.3016777,132.137297 L28.6898497,132.000048 L28.6898497,132.000048 Z M28.9106323,133.151747 L34.7288118,133.271094 L34.8481589,139.095237 L27.3233162,146.620057 L21.3858087,140.676572 L28.9106323,133.151747 L28.9106323,133.151747 Z M30.9181786,135.369087 C30.4771482,135.369087 30.0340173,135.537176 29.7008384,135.870351 C29.0344998,136.536708 29.0344807,137.632715 29.7008384,138.299054 C30.3671961,138.965412 31.4631842,138.965431 32.129561,138.299054 C32.7958805,137.632715 32.7958614,136.536708 32.129561,135.870351 C31.7963821,135.537168 31.359209,135.369087 30.9181786,135.369087 Z M30.9181786,136.508848 C31.0635911,136.508848 31.2097101,136.567662 31.3239586,136.681911 C31.5524749,136.910427 31.5524558,137.264955 31.3239586,137.493471 C31.0954424,137.721987 30.7409339,137.722006 30.5123985,137.493471 C30.2839014,137.264955 30.2838823,136.910427 30.5123985,136.681911 C30.6266662,136.567643 30.7727661,136.508848 30.9181786,136.508848 Z" id="Shape"></path>
        </g>
    </g>
</svg>