<?xml version="1.0" encoding="UTF-8"?>
<svg width="87px" height="48px" viewBox="0 0 87 48" version="1.1" xmlns="http://www.w3.org/2000/svg" xmlns:xlink="http://www.w3.org/1999/xlink">
    <!-- Generator: Sketch 47 (45396) - http://www.bohemiancoding.com/sketch -->
    <title>noun_1061378_cc</title>
    <desc>Created with Sketch.</desc>
    <defs></defs>
    <g id="RegisTRATION" stroke="none" stroke-width="1" fill="none" fill-rule="evenodd">
        <g id="noun_1061378_cc" fill-rule="nonzero" fill="#000000">
            <path d="M84.4,16.9 L86.2,16.9 L86.2,0.5 L0.2,0.5 L0.2,16.9 L2,16.9 C5.9,16.9 8.8,20 8.8,24.2 C8.8,28.4 6,31.5 2,31.5 L0.2,31.5 L0.2,47.9 L86.3,47.9 L86.3,31.5 L84.5,31.5 C80.6,31.5 77.7,28.4 77.7,24.2 C77.7,20 80.5,16.9 84.4,16.9 Z M61.6,44.3 L3.8,44.3 L3.8,35 C8.8,34.1 12.4,29.8 12.4,24.2 C12.4,18.6 8.8,14.2 3.8,13.4 L3.8,4.2 L61.6,4.2 L61.6,44.3 Z M82.6,35 L82.6,44.2 L64.6,44.2 L64.6,4.1 L82.6,4.1 L82.6,13.3 C77.6,14.2 74,18.5 74,24.1 C74,29.8 77.6,34.2 82.6,35 Z" id="Shape"></path>
        </g>
    </g>
</svg>