<?xml version="1.0" encoding="UTF-8"?>
<svg width="88px" height="88px" viewBox="0 0 88 88" version="1.1" xmlns="http://www.w3.org/2000/svg" xmlns:xlink="http://www.w3.org/1999/xlink">
    <!-- Generator: Sketch 47 (45396) - http://www.bohemiancoding.com/sketch -->
    <title>user</title>
    <desc>Created with Sketch.</desc>
    <defs></defs>
    <g id="RegisTRATION" stroke="none" stroke-width="1" fill="none" fill-rule="evenodd">
        <g id="user" transform="translate(0.000000, -1.000000)" fill-rule="nonzero" fill="#FFFFFF">
            <g id="Group" transform="translate(0.000000, 0.637820)">
                <path d="M44,0.36217 C19.72316,0.36217 0,20.08533 0,44.3622 C0,68.639 19.72316,88.3622 44,88.3622 C68.27684,88.3622 88,68.639 88,44.3622 C88,20.08533 68.27684,0.36217 44,0.36217 Z M44,4.36217 C66.11508,4.36217 84,22.24709 84,44.3622 C84,55.1338 79.75188,64.8943 72.84375,72.0809 C69.26411,59.5158 57.71648,50.3622 44,50.3622 C30.28352,50.3622 18.73589,59.5158 15.15625,72.0809 C8.24812,64.8943 4,55.1338 4,44.3622 C4,22.24709 21.88492,4.36217 44,4.36217 Z M44,9.36217 C35.03272,9.36217 28,17.57985 28,27.36217 C28,37.14449 35.03272,45.3622 44,45.3622 C52.96728,45.3622 60,37.14448 60,27.36217 C60,17.57985 52.96728,9.36217 44,9.36217 Z M44,13.36217 C50.4967,13.36217 56,19.4714 56,27.36217 C56,35.25294 50.4967,41.36217 44,41.36217 C37.5033,41.36217 32,35.25294 32,27.36217 C32,19.4714 37.5033,13.36217 44,13.36217 Z M44,54.3622 C56.67004,54.3622 67.12358,63.2832 69.5,75.2059 C62.58251,80.926 53.69134,84.3622 44,84.3622 C34.30866,84.3622 25.41749,80.926 18.5,75.2059 C20.87642,63.2832 31.32996,54.3622 44,54.3622 L44,54.3622 Z" id="Shape"></path>
            </g>
        </g>
    </g>
</svg>