<?xml version="1.0" encoding="UTF-8"?>
<svg width="82px" height="74px" viewBox="0 0 82 74" version="1.1" xmlns="http://www.w3.org/2000/svg" xmlns:xlink="http://www.w3.org/1999/xlink">
    <!-- Generator: Sketch 47 (45396) - http://www.bohemiancoding.com/sketch -->
    <title>wallet</title>
    <desc>Created with Sketch.</desc>
    <defs></defs>
    <g id="RegisTRATION" stroke="none" stroke-width="1" fill="none" fill-rule="evenodd">
        <g id="wallet" fill-rule="nonzero" fill="#000000">
            <g id="Group">
                <path d="M6,73.5 L68,73.5 C72.4,73.5 76,69.9 76,65.5 L76,56.4 C79.4,55.9 82,53 82,49.5 L82,37.5 C82,34 79.4,31.1 76,30.6 L76,21.5 C76,17.1 72.4,13.5 68,13.5 L59.7,13.5 L58,2.2 C57.9,1.6 57.6,1.1 57.1,0.8 C56.6,0.5 56,0.4 55.5,0.6 L10,13.5 L6,13.5 C2.7,13.5 0,16.2 0,19.5 L0,67.5 C0,70.8 2.7,73.5 6,73.5 Z M78,37.5 L78,49.5 C78,51.2 76.7,52.5 75,52.5 L60,52.5 C56.7,52.5 54,49.8 54,46.5 L54,40.5 C54,37.2 56.7,34.5 60,34.5 L75,34.5 C76.7,34.5 78,35.8 78,37.5 Z M54.4,5 L55.7,13.5 L24.6,13.5 L54.4,5 Z M4,19.5 C4,18.4 4.9,17.5 6,17.5 L10.2,17.5 C10.2,17.5 10.2,17.5 10.2,17.5 C10.2,17.5 10.2,17.5 10.2,17.5 L68,17.5 C70.2,17.5 72,19.3 72,21.5 L72,30.5 L60,30.5 C54.5,30.5 50,35 50,40.5 L50,46.5 C50,52 54.5,56.5 60,56.5 L72,56.5 L72,65.5 C72,67.7 70.2,69.5 68,69.5 L6,69.5 C4.9,69.5 4,68.6 4,67.5 L4,19.5 Z" id="Shape"></path>
                <path d="M63,37.5 C59.7,37.5 57,40.2 57,43.5 C57,46.8 59.7,49.5 63,49.5 C66.3,49.5 69,46.8 69,43.5 C69,40.2 66.3,37.5 63,37.5 Z M63,45.5 C61.9,45.5 61,44.6 61,43.5 C61,42.4 61.9,41.5 63,41.5 C64.1,41.5 65,42.4 65,43.5 C65,44.6 64.1,45.5 63,45.5 Z" id="Shape"></path>
            </g>
        </g>
    </g>
</svg>